<svg xmlns="http://www.w3.org/2000/svg" height="512pt" version="1.1" viewBox="-24 0 512 512.00021" width="512pt">
<g id="surface1">
<path d="M 449.371094 73.535156 L 241.644531 1.628906 C 235.371094 -0.542969 228.449219 -0.542969 222.183594 1.628906 L 19.085938 71.929688 C 12.738281 74.128906 7.363281 78.519531 3.945312 84.300781 C 0.53125 90.082031 -0.726562 96.910156 0.40625 103.527344 L 47.5625 378.613281 C 48.226562 382.484375 49.628906 386.128906 51.734375 389.445312 C 53.835938 392.761719 56.53125 395.585938 59.753906 397.84375 L 215.398438 506.796875 C 220.261719 510.199219 225.972656 512 231.914062 512 C 237.851562 512 243.5625 510.199219 248.421875 506.796875 L 406.457031 396.171875 C 411.363281 392.738281 414.761719 387.382812 415.769531 381.480469 L 464.25 98.691406 C 466.121094 87.746094 459.863281 77.164062 449.371094 73.535156 Z M 386.695312 373.351562 L 231.914062 481.695312 L 77.128906 373.351562 L 30.242188 99.847656 L 231.914062 30.039062 L 433.582031 99.847656 Z M 386.695312 373.351562 " style=" stroke:none;fill-rule:nonzero;fill:rgb(0%,0%,0%);fill-opacity:1;" />
<path d="M 112.308594 239.816406 C 113.691406 240.566406 115.339844 240.941406 117.265625 240.941406 C 119.183594 240.941406 120.835938 240.566406 122.21875 239.816406 C 123.597656 239.066406 124.289062 238 124.289062 236.617188 L 124.289062 212.203125 L 142.21875 212.203125 L 142.21875 236.617188 C 142.21875 238 142.90625 239.066406 144.289062 239.816406 C 145.671875 240.566406 147.320312 240.941406 149.246094 240.941406 C 151.167969 240.941406 152.816406 240.566406 154.199219 239.816406 C 155.582031 239.066406 156.269531 238 156.269531 236.617188 L 156.269531 179.320312 C 156.269531 177.941406 155.582031 176.886719 154.199219 176.167969 C 152.816406 175.449219 151.167969 175.085938 149.246094 175.085938 C 147.320312 175.085938 145.671875 175.449219 144.289062 176.167969 C 142.90625 176.890625 142.21875 177.941406 142.21875 179.320312 L 142.21875 201.394531 L 124.289062 201.394531 L 124.289062 179.320312 C 124.289062 177.941406 123.597656 176.886719 122.21875 176.167969 C 120.835938 175.449219 119.183594 175.085938 117.265625 175.085938 C 115.339844 175.085938 113.691406 175.449219 112.308594 176.167969 C 110.925781 176.890625 110.238281 177.941406 110.238281 179.320312 L 110.238281 236.617188 C 110.238281 238 110.925781 239.066406 112.308594 239.816406 Z M 112.308594 239.816406 " style=" stroke:none;fill-rule:nonzero;fill:rgb(0%,0%,0%);fill-opacity:1;" />
<path d="M 166.09375 187.339844 L 178.523438 187.339844 L 178.523438 236.589844 C 178.523438 237.980469 179.214844 239.054688 180.597656 239.808594 C 181.976562 240.566406 183.628906 240.941406 185.550781 240.941406 C 187.472656 240.941406 189.125 240.566406 190.507812 239.808594 C 191.886719 239.054688 192.578125 237.980469 192.578125 236.589844 L 192.578125 187.339844 L 205.011719 187.339844 C 206.328125 187.339844 207.367188 186.742188 208.117188 185.546875 C 208.867188 184.347656 209.246094 182.875 209.246094 181.125 C 209.246094 179.492188 208.882812 178.078125 208.164062 176.882812 C 207.441406 175.6875 206.390625 175.085938 205.011719 175.085938 L 166.089844 175.085938 C 164.707031 175.085938 163.65625 175.6875 162.9375 176.882812 C 162.21875 178.078125 161.859375 179.492188 161.859375 181.125 C 161.859375 182.875 162.230469 184.347656 162.984375 185.546875 C 163.734375 186.742188 164.769531 187.339844 166.09375 187.339844 Z M 166.09375 187.339844 " style=" stroke:none;fill-rule:nonzero;fill:rgb(0%,0%,0%);fill-opacity:1;" />
<path d="M 211.765625 176.878906 C 211.046875 178.078125 210.6875 179.492188 210.6875 181.125 C 210.6875 182.875 211.058594 184.347656 211.8125 185.542969 C 212.5625 186.742188 213.597656 187.339844 214.921875 187.339844 L 227.351562 187.339844 L 227.351562 236.585938 C 227.351562 237.980469 228.042969 239.054688 229.421875 239.808594 C 230.804688 240.5625 232.457031 240.941406 234.378906 240.941406 C 236.300781 240.941406 237.953125 240.5625 239.332031 239.808594 C 240.714844 239.054688 241.40625 237.980469 241.40625 236.585938 L 241.40625 187.339844 L 253.839844 187.339844 C 255.15625 187.339844 256.195312 186.742188 256.945312 185.542969 C 257.695312 184.347656 258.074219 182.875 258.074219 181.125 C 258.074219 179.492188 257.710938 178.078125 256.992188 176.878906 C 256.269531 175.683594 255.21875 175.085938 253.839844 175.085938 L 214.917969 175.085938 C 213.535156 175.085938 212.488281 175.683594 211.765625 176.878906 Z M 211.765625 176.878906 " style=" stroke:none;fill-rule:nonzero;fill:rgb(0%,0%,0%);fill-opacity:1;" />
<path d="M 265.730469 239.816406 C 267.113281 240.566406 268.761719 240.941406 270.683594 240.941406 C 272.605469 240.941406 274.257812 240.566406 275.640625 239.816406 C 277.019531 239.066406 277.710938 238 277.710938 236.617188 L 277.710938 217.160156 L 286.628906 217.160156 C 293.296875 217.160156 298.65625 215.464844 302.710938 212.070312 C 306.765625 208.675781 308.792969 203.40625 308.792969 196.257812 L 308.792969 195.808594 C 308.792969 188.660156 306.855469 183.421875 302.980469 180.085938 C 299.105469 176.753906 293.957031 175.085938 287.53125 175.085938 L 268.882812 175.085938 C 267.320312 175.085938 266.058594 175.507812 265.097656 176.347656 C 264.136719 177.191406 263.65625 178.179688 263.65625 179.320312 L 263.65625 236.617188 C 263.660156 238 264.347656 239.066406 265.730469 239.816406 Z M 277.714844 187.339844 L 286.632812 187.339844 C 292.035156 187.339844 294.738281 190.34375 294.738281 196.347656 L 294.738281 197.339844 C 294.738281 203.34375 292.039062 206.347656 286.632812 206.347656 L 277.714844 206.347656 Z M 277.714844 187.339844 " style=" stroke:none;fill-rule:nonzero;fill:rgb(0%,0%,0%);fill-opacity:1;" />
<path d="M 339.332031 228.105469 C 337.589844 229.09375 335.546875 229.589844 333.207031 229.589844 C 331.34375 229.589844 329.570312 229.226562 327.890625 228.496094 C 326.207031 227.769531 324.902344 226.964844 323.972656 226.078125 C 323.039062 225.191406 322.019531 224.386719 320.90625 223.65625 C 319.796875 222.925781 318.792969 222.5625 317.890625 222.5625 C 316.269531 222.5625 314.839844 223.402344 313.609375 225.085938 C 312.378906 226.769531 311.765625 228.449219 311.765625 230.132812 C 311.765625 233.136719 313.925781 235.835938 318.25 238.238281 C 322.574219 240.640625 327.648438 241.84375 333.476562 241.84375 C 340.203125 241.84375 345.636719 240.117188 349.78125 236.667969 C 353.925781 233.21875 356 228.398438 356 222.203125 C 356 218.660156 355.292969 215.507812 353.882812 212.746094 C 352.46875 209.984375 350.710938 207.835938 348.609375 206.300781 C 346.507812 204.773438 344.210938 203.359375 341.71875 202.070312 C 339.226562 200.777344 336.929688 199.726562 334.824219 198.914062 C 332.722656 198.105469 330.96875 197.128906 329.554688 195.988281 C 328.144531 194.847656 327.4375 193.585938 327.4375 192.203125 C 327.4375 190.703125 328.1875 189.425781 329.691406 188.375 C 331.191406 187.324219 333.445312 186.800781 336.449219 186.800781 C 339.269531 186.800781 341.851562 187.371094 344.195312 188.511719 C 346.539062 189.652344 348.070312 190.222656 348.789062 190.222656 C 350.53125 190.222656 351.898438 189.367188 352.890625 187.660156 C 353.882812 185.949219 354.375 184.304688 354.375 182.714844 C 354.375 181.046875 353.699219 179.625 352.347656 178.445312 C 350.996094 177.269531 349.253906 176.421875 347.125 175.894531 C 344.988281 175.367188 343.070312 175.011719 341.359375 174.824219 C 339.644531 174.640625 338.007812 174.546875 336.449219 174.546875 C 330.082031 174.546875 324.644531 176.125 320.140625 179.277344 C 315.636719 182.429688 313.382812 187.191406 313.382812 193.558594 C 313.382812 197.460938 314.359375 200.824219 316.3125 203.648438 C 318.261719 206.46875 320.652344 208.648438 323.476562 210.179688 C 326.296875 211.710938 329.105469 213.09375 331.898438 214.324219 C 334.691406 215.554688 337.0625 216.921875 339.015625 218.421875 C 340.964844 219.921875 341.941406 221.664062 341.941406 223.648438 C 341.945312 225.628906 341.074219 227.113281 339.332031 228.105469 Z M 339.332031 228.105469 " style=" stroke:none;fill-rule:nonzero;fill:rgb(0%,0%,0%);fill-opacity:1;" />
<path d="M 342.34375 256.035156 L 125.457031 256.035156 C 117.164062 256.035156 110.441406 262.757812 110.441406 271.050781 C 110.441406 279.34375 117.164062 286.066406 125.457031 286.066406 L 342.34375 286.066406 C 350.636719 286.066406 357.359375 279.34375 357.359375 271.050781 C 357.359375 262.757812 350.636719 256.035156 342.34375 256.035156 Z M 342.34375 256.035156 " style=" stroke:none;fill-rule:nonzero;fill:rgb(0%,0%,0%);fill-opacity:1;" />
</g>
</svg>